<?xml version="1.0" encoding="UTF-8"?>
<svg id="Layer_2" data-name="Layer 2" xmlns="http://www.w3.org/2000/svg" viewBox="0 0 600 600">
  <defs>
    <style>
      .cls-1 {
        fill: #0051ac;
      }

      .cls-2 {
        fill: #fafdff;
      }
    </style>
  </defs>
  <g id="Layer_1-2" data-name="Layer 1">
    <circle class="cls-1" cx="300" cy="300" r="300"/>
    <path class="cls-2" d="M412.33,149.66c-45.5,0-86.26,20.26-113.77,52.25-1.32,1.21-2.65,2.4-4.01,3.56-6.54-10.96-18.52-18.31-32.22-18.31-20.71,0-37.5,16.79-37.5,37.5,0,4.83.92,9.44,2.58,13.67-9.77,2-19.88,3.06-30.25,3.06-18.05,0-35.36-3.19-51.39-9.04-9.98-4.92-21.21-7.69-33.1-7.69-41.42,0-75,33.58-75,75s33.58,75,75,75c8.78,0,17.2-1.52,25.03-4.29.16.2.31.41.48.61,18.11-7.75,38.04-12.05,58.98-12.05,17.11,0,33.55,2.87,48.87,8.15-1.56,2.73-2.46,5.89-2.46,9.27,0,10.36,8.4,18.75,18.75,18.75,7.78,0,14.45-4.74,17.29-11.48,9.48,6.25,18.21,13.54,26.03,21.72.05-.03.1-.05.16-.08,27.18,27.42,64.87,44.41,106.53,44.41,82.84,0,150-67.16,150-150s-67.16-150-150-150ZM466.58,285.01c-20.71,0-37.5-16.79-37.5-37.5s16.79-37.5,37.5-37.5,37.5,16.79,37.5,37.5-16.79,37.5-37.5,37.5Z"/>
  </g>
</svg>