<?xml version="1.0" encoding="UTF-8"?>
<svg id="Layer_2" data-name="Layer 2" xmlns="http://www.w3.org/2000/svg" viewBox="0 0 94.6 93.39">
  <defs>
    <style>
      .cls-1 {
        fill: none;
        stroke: #0c363a;
        stroke-dasharray: 4.96 0 0;
        stroke-miterlimit: 10;
        stroke-width: .83px;
      }

      .cls-2 {
        fill: #0c363a;
      }
    </style>
  </defs>
  <g id="DESIGN_LAYERS_-_Make_more_if_needed" data-name="DESIGN LAYERS - Make more if needed">
    <g id="Hook_instructions" data-name="Hook instructions">
      <g id="Cut_Line" data-name="Cut Line">
        <path class="cls-2" d="M.2,45.45c.28,0,.65-.08.71-.4h.69v3.52h-.82v-2.61H.2v-.51Z"/>
        <path class="cls-2" d="M2.47,48.58v-.83h.77v.83h-.77Z"/>
        <path class="cls-2" d="M2.15,54.01v.51H.06v-.44c0-1.13,1.27-1.64,1.27-2.34,0-.17-.08-.25-.22-.25s-.22.08-.22.25v.51H.06v-.39c0-.86.6-.94,1.07-.94s1.02.19,1.02.93c0,.81-.77,1.17-1.14,1.81-.06.11-.13.2-.13.34h1.27Z"/>
        <path class="cls-2" d="M2.47,54.53v-.83h.77v.83h-.77Z"/>
        <path class="cls-2" d="M.92,59.12v.59c0,.14.04.27.21.27s.21-.12.21-.27v-.45c0-.3-.17-.32-.39-.32h-.28v-.56h.32c.18,0,.35-.07.35-.31v-.41c0-.12-.08-.22-.21-.22-.21,0-.21.22-.21.38v.39H.1v-.51c0-.68.63-.83,1.02-.83.51,0,1.04.2,1.04.79v.22c0,.5-.2.68-.51.75t0,0v.03c.32.04.51.18.51.64v.39c0,.61-.48.85-1.04.85-.65,0-1.02-.25-1.02-.82v-.6h.82Z"/>
        <path class="cls-2" d="M2.47,60.47v-.83h.77v.83h-.77Z"/>
        <path class="cls-2" d="M0,65.05l.96-2.15h1v2.15h.27v.57h-.27v.81h-.77v-.81H0v-.57ZM.54,65.05h.64v-1.42h-.01l-.63,1.42Z"/>
        <path class="cls-2" d="M2.47,66.42v-.83h.77v.83h-.77Z"/>
      </g>
      <g id="English_Hook" data-name="English Hook">
        <path class="cls-2" d="M9.78,48.58v-3.52h.83c.78,0,1.25.08,1.25.82,0,.44-.18.73-.63.8h0c.4.02.63.17.63.67v.74c0,.14.02.35.12.49h-.83c-.1-.14-.12-.35-.12-.49v-.75c0-.25-.15-.37-.3-.37h-.13v1.61h-.82ZM10.6,46.47c.37,0,.43-.12.43-.46s-.06-.45-.43-.45v.91Z"/>
        <path class="cls-2" d="M12.29,48.58v-3.52h1.7v.53h-.88v.77h.85v.53h-.85v1.15h.88v.53h-1.7Z"/>
        <path class="cls-2" d="M14.99,48.58h-.66v-3.52h1.21l.35,2.5h.01l.35-2.5h1.18v3.52h-.74v-3.01h0l-.48,3.01h-.72l-.47-3.01h0v3.01Z"/>
        <path class="cls-2" d="M19.93,47.62c0,.81-.49,1.03-1.04,1.03s-1.04-.22-1.04-1.03v-1.6c0-.81.49-1.03,1.04-1.03s1.04.22,1.04,1.03v1.6ZM18.67,47.81c0,.14.04.28.22.28s.22-.13.22-.28v-1.98c0-.14-.04-.28-.22-.28s-.22.13-.22.28v1.98Z"/>
        <path class="cls-2" d="M20.29,45.05h.88l.2,2.72h.01l.36-2.72h.77l-.59,3.52h-1.08l-.54-3.52Z"/>
        <path class="cls-2" d="M22.86,48.58v-3.52h1.7v.53h-.88v.77h.85v.53h-.85v1.15h.88v.53h-1.7Z"/>
        <path class="cls-2" d="M26.26,48.58v-3.52h.83c.78,0,1.25.08,1.25.82,0,.44-.18.73-.63.8h0c.4.02.63.17.63.67v.74c0,.14.02.35.12.49h-.83c-.1-.14-.12-.35-.12-.49v-.75c0-.25-.15-.37-.3-.37h-.13v1.61h-.82ZM27.08,46.47c.37,0,.43-.12.43-.46s-.06-.45-.43-.45v.91Z"/>
        <path class="cls-2" d="M28.76,48.58v-3.52h.82v3.52h-.82Z"/>
        <path class="cls-2" d="M29.96,45.05h1.14l.53,2.56h0v-2.56h.64v3.52h-1.05l-.61-2.95h0v2.95h-.64v-3.52Z"/>
        <path class="cls-2" d="M34.23,48.4c-.09.1-.21.16-.34.2-.12.04-.26.05-.38.05-.54,0-.84-.22-.84-1.03v-1.6c0-.81.5-1.03,1.04-1.03.66,0,1.04.27,1.04.96v.37h-.83v-.49c0-.14-.04-.28-.22-.28s-.22.13-.22.28v1.98c0,.14.04.28.22.28s.22-.13.22-.28v-.47h-.31v-.53h1.13v1.78h-.48l-.04-.18Z"/>
        <path class="cls-2" d="M35.18,48.58v-3.52h1.01c.65,0,1.07.15,1.07.76v.64c0,.53-.47.76-.96.76h-.3v1.36h-.82ZM36.01,46.71h.13c.29,0,.31-.16.31-.57s-.02-.58-.31-.58h-.13v1.15Z"/>
        <path class="cls-2" d="M39.77,47.57c-.02.75-.28,1.07-1.04,1.07-1.02,0-1.04-.71-1.04-1.15v-2.44h.82v2.54c0,.28,0,.49.21.49s.22-.21.22-.49v-2.54h.82v2.52Z"/>
        <path class="cls-2" d="M40.19,48.58v-3.52h.82v2.99h.89v.53h-1.71Z"/>
        <path class="cls-2" d="M42.23,48.58v-3.52h.82v2.99h.89v.53h-1.71Z"/>
        <path class="cls-2" d="M45.63,48.58v-3.52h1.7v.53h-.88v.77h.85v.53h-.85v1.68h-.82Z"/>
        <path class="cls-2" d="M47.67,48.58v-3.52h.83c.78,0,1.25.08,1.25.82,0,.44-.18.73-.63.8h0c.4.02.63.17.63.67v.74c0,.14.02.35.12.49h-.83c-.1-.14-.12-.35-.12-.49v-.75c0-.25-.15-.37-.3-.37h-.13v1.61h-.82ZM48.49,46.47c.37,0,.43-.12.43-.46s-.05-.45-.43-.45v.91Z"/>
        <path class="cls-2" d="M52.27,47.62c0,.81-.5,1.03-1.04,1.03s-1.04-.22-1.04-1.03v-1.6c0-.81.5-1.03,1.04-1.03s1.04.22,1.04,1.03v1.6ZM51.01,47.81c0,.14.04.28.22.28s.22-.13.22-.28v-1.98c0-.14-.04-.28-.22-.28s-.22.13-.22.28v1.98Z"/>
        <path class="cls-2" d="M53.35,48.58h-.66v-3.52h1.21l.35,2.5h0l.35-2.5h1.18v3.52h-.74v-3.01h-.01l-.47,3.01h-.72l-.47-3.01h-.01v3.01Z"/>
        <path class="cls-2" d="M59.65,47.21v.47c0,.66-.35.98-1.04.98-.54,0-1.04-.22-1.04-1.03v-1.6c0-.81.49-1.03,1.04-1.03.6,0,1.04.18,1.04.94v.39h-.82v-.49c0-.14-.04-.28-.22-.28-.17,0-.21.13-.21.28v1.98c0,.14.04.28.21.28.18,0,.22-.13.22-.28v-.6h.82Z"/>
        <path class="cls-2" d="M61.75,45.05l.46,3.52h-.82l-.09-.87h-.45l-.13.87h-.69l.6-3.52h1.13ZM61.23,47.18l-.14-1.57h0l-.14,1.57h.3Z"/>
        <path class="cls-2" d="M62.55,45.05h1.14l.52,2.56h.01v-2.56h.64v3.52h-1.05l-.61-2.95h0v2.95h-.64v-3.52Z"/>
        <path class="cls-2" d="M11.87,53.15v.47c0,.66-.35.98-1.04.98-.54,0-1.03-.22-1.03-1.03v-1.6c0-.81.49-1.03,1.03-1.03.6,0,1.04.18,1.04.94v.39h-.82v-.49c0-.14-.04-.28-.22-.28-.17,0-.21.13-.21.28v1.98c0,.14.04.28.21.28.18,0,.22-.13.22-.28v-.6h.82Z"/>
        <path class="cls-2" d="M14.38,53.52c-.02.75-.28,1.07-1.04,1.07-1.01,0-1.03-.71-1.03-1.15v-2.44h.82v2.54c0,.28,0,.49.21.49s.22-.21.22-.49v-2.54h.82v2.52Z"/>
        <path class="cls-2" d="M14.77,51.54v-.53h1.97v.53h-.57v2.99h-.82v-2.99h-.57Z"/>
        <path class="cls-2" d="M20.56,53.57c0,.81-.49,1.03-1.04,1.03s-1.04-.22-1.04-1.03v-1.6c0-.81.49-1.03,1.04-1.03s1.04.22,1.04,1.03v1.6ZM19.3,53.75c0,.14.04.28.22.28s.22-.13.22-.28v-1.98c0-.14-.04-.28-.22-.28s-.22.13-.22.28v1.98Z"/>
        <path class="cls-2" d="M20.96,51h1.14l.52,2.56h.01v-2.56h.64v3.53h-1.05l-.61-2.95h-.01v2.95h-.64v-3.53Z"/>
        <path class="cls-2" d="M25.02,54.53v-3.53h.82v2.99h.89v.53h-1.71Z"/>
        <path class="cls-2" d="M27.06,54.53v-3.53h.82v3.53h-.82Z"/>
        <path class="cls-2" d="M28.26,51h1.14l.53,2.56h0v-2.56h.64v3.53h-1.05l-.61-2.95h0v2.95h-.64v-3.53Z"/>
        <path class="cls-2" d="M30.97,54.53v-3.53h1.7v.53h-.88v.77h.85v.53h-.85v1.15h.88v.53h-1.7Z"/>
        <path class="cls-2" d="M34.28,52.26v-.49c0-.17-.05-.27-.22-.27-.18,0-.22.1-.22.27,0,.59,1.26.77,1.26,1.86,0,.66-.36.97-1.04.97-.53,0-1.04-.18-1.04-.79v-.65h.82v.61c0,.21.06.27.22.27.13,0,.22-.06.22-.27,0-.8-1.26-.81-1.26-1.95,0-.64.42-.88,1.06-.88.55,0,1.02.19,1.02.78v.55h-.82Z"/>
        <path class="cls-2" d="M9.75,57.48v-.53h1.97v.53h-.57v2.99h-.82v-2.99h-.57Z"/>
        <path class="cls-2" d="M12.02,56.95h.84l.17,2.51h0l.32-2.51h.89l.22,2.51h0l.26-2.51h.73l-.46,3.53h-.96l-.32-2.72h0l-.29,2.72h-.95l-.47-3.53Z"/>
        <path class="cls-2" d="M15.79,60.47v-3.53h.82v3.53h-.82Z"/>
        <path class="cls-2" d="M18.28,58.21v-.49c0-.17-.05-.27-.22-.27-.18,0-.22.1-.22.27,0,.59,1.26.77,1.26,1.86,0,.66-.36.97-1.04.97-.53,0-1.04-.18-1.04-.79v-.65h.82v.61c0,.21.06.27.22.27.13,0,.22-.06.22-.27,0-.8-1.26-.81-1.26-1.95,0-.64.42-.88,1.05-.88.55,0,1.03.19,1.03.78v.55h-.82Z"/>
        <path class="cls-2" d="M19.49,57.48v-.53h1.97v.53h-.57v2.99h-.82v-2.99h-.57Z"/>
        <path class="cls-2" d="M24.88,56.95l.46,3.53h-.82l-.09-.87h-.45l-.13.87h-.69l.6-3.53h1.13ZM24.37,59.07l-.14-1.57h-.01l-.14,1.57h.3Z"/>
        <path class="cls-2" d="M25.69,56.95h1.14l.52,2.56h.01v-2.56h.64v3.53h-1.05l-.61-2.95h-.01v2.95h-.64v-3.53Z"/>
        <path class="cls-2" d="M28.4,56.95h.85c.92,0,1.23.15,1.23,1.2v1.26c0,.67-.2,1.06-1.23,1.06h-.85v-3.53ZM29.22,59.97c.4,0,.44-.15.44-.49v-1.45c0-.47-.02-.57-.44-.57v2.52Z"/>
        <path class="cls-2" d="M32.26,60.47v-3.53h1.7v.53h-.88v.77h.85v.53h-.85v1.68h-.82Z"/>
        <path class="cls-2" d="M36.39,59.51c0,.81-.5,1.03-1.04,1.03s-1.04-.22-1.04-1.03v-1.6c0-.81.5-1.03,1.04-1.03s1.04.22,1.04,1.03v1.6ZM35.13,59.7c0,.14.04.28.22.28s.22-.13.22-.28v-1.98c0-.14-.04-.28-.22-.28s-.22.13-.22.28v1.98Z"/>
        <path class="cls-2" d="M36.81,60.47v-3.53h.82v2.99h.89v.53h-1.71Z"/>
        <path class="cls-2" d="M38.86,56.95h.85c.92,0,1.23.15,1.23,1.2v1.26c0,.67-.2,1.06-1.23,1.06h-.85v-3.53ZM39.68,59.97c.4,0,.44-.15.44-.49v-1.45c0-.47-.02-.57-.44-.57v2.52Z"/>
        <path class="cls-2" d="M42.71,60.47v-3.53h.82v2.99h.89v.53h-1.71Z"/>
        <path class="cls-2" d="M46.84,59.51c0,.81-.5,1.03-1.04,1.03s-1.04-.22-1.04-1.03v-1.6c0-.81.5-1.03,1.04-1.03s1.04.22,1.04,1.03v1.6ZM45.59,59.7c0,.14.04.28.22.28s.22-.13.22-.28v-1.98c0-.14-.04-.28-.22-.28s-.22.13-.22.28v1.98Z"/>
        <path class="cls-2" d="M49.35,59.51c0,.81-.5,1.03-1.04,1.03s-1.04-.22-1.04-1.03v-1.6c0-.81.5-1.03,1.04-1.03s1.04.22,1.04,1.03v1.6ZM48.09,59.7c0,.14.04.28.22.28s.22-.13.22-.28v-1.98c0-.14-.04-.28-.22-.28s-.22.13-.22.28v1.98Z"/>
        <path class="cls-2" d="M49.78,60.47v-3.53h1.01c.65,0,1.07.15,1.07.76v.64c0,.53-.47.76-.96.76h-.3v1.36h-.82ZM50.6,58.6h.13c.29,0,.31-.16.31-.57s-.02-.58-.31-.58h-.13v1.15Z"/>
        <path class="cls-2" d="M53.64,56.95h.83c.7,0,1.25.01,1.25.86,0,.39-.11.74-.58.79v.03c.52,0,.58.39.58.84,0,.97-.38,1-1.25,1h-.83v-3.53ZM54.47,58.38c.26-.02.44.07.44-.46,0-.35-.03-.49-.44-.47v.93ZM54.47,59.97c.44.04.44-.21.44-.58,0-.5-.09-.5-.44-.5v1.08Z"/>
        <path class="cls-2" d="M57.83,56.95l.46,3.53h-.82l-.09-.87h-.45l-.13.87h-.69l.6-3.53h1.13ZM57.31,59.07l-.14-1.57h0l-.14,1.57h.3Z"/>
        <path class="cls-2" d="M60.74,59.1v.47c0,.66-.35.98-1.04.98-.54,0-1.04-.22-1.04-1.03v-1.6c0-.81.49-1.03,1.04-1.03.6,0,1.04.18,1.04.94v.39h-.82v-.49c0-.14-.04-.28-.22-.28-.17,0-.21.13-.21.28v1.98c0,.14.04.28.21.28.18,0,.22-.13.22-.28v-.6h.82Z"/>
        <path class="cls-2" d="M61.17,60.47v-3.53h.82v1.6h.01l.52-1.6h.78l-.55,1.56.55,1.97h-.81l-.49-1.79h-.01v1.79h-.82Z"/>
        <path class="cls-2" d="M63.58,56.95h.84l.17,2.51h.01l.32-2.51h.89l.22,2.51h.01l.26-2.51h.73l-.46,3.53h-.96l-.32-2.72h-.01l-.29,2.72h-.95l-.47-3.53Z"/>
        <path class="cls-2" d="M68.68,56.95l.46,3.53h-.82l-.09-.87h-.45l-.13.87h-.69l.6-3.53h1.13ZM68.16,59.07l-.14-1.57h0l-.14,1.57h.3Z"/>
        <path class="cls-2" d="M69.5,60.47v-3.53h.83c.78,0,1.25.08,1.25.82,0,.44-.18.73-.63.8h0c.4.02.63.17.63.67v.74c0,.14.02.35.12.49h-.83c-.1-.14-.12-.35-.12-.49v-.75c0-.25-.15-.37-.3-.37h-.13v1.61h-.82ZM70.33,58.36c.37,0,.43-.12.43-.46s-.05-.45-.43-.45v.91Z"/>
        <path class="cls-2" d="M72.02,56.95h.85c.92,0,1.23.15,1.23,1.2v1.26c0,.67-.2,1.06-1.23,1.06h-.85v-3.53ZM72.84,59.97c.4,0,.44-.15.44-.49v-1.45c0-.47-.02-.57-.44-.57v2.52Z"/>
        <path class="cls-2" d="M75.79,58.21v-.49c0-.17-.05-.27-.22-.27-.18,0-.22.1-.22.27,0,.59,1.26.77,1.26,1.86,0,.66-.36.97-1.04.97-.53,0-1.04-.18-1.04-.79v-.65h.82v.61c0,.21.06.27.22.27.13,0,.22-.06.22-.27,0-.8-1.26-.81-1.26-1.95,0-.64.42-.88,1.06-.88.55,0,1.02.19,1.02.78v.55h-.82Z"/>
        <path class="cls-2" d="M9.75,63.43v-.53h1.97v.53h-.57v2.99h-.82v-2.99h-.57Z"/>
        <path class="cls-2" d="M12.09,66.42v-3.53h.82v3.53h-.82Z"/>
        <path class="cls-2" d="M13.32,66.42v-3.53h1.7v.53h-.88v.77h.85v.53h-.85v1.15h.88v.53h-1.7Z"/>
        <path class="cls-2" d="M18.81,65.46c0,.81-.49,1.03-1.04,1.03s-1.04-.22-1.04-1.03v-1.6c0-.81.49-1.03,1.04-1.03s1.04.22,1.04,1.03v1.6ZM17.55,65.65c0,.14.04.28.22.28s.22-.13.22-.28v-1.98c0-.14-.04-.28-.22-.28s-.22.13-.22.28v1.98Z"/>
        <path class="cls-2" d="M19.21,62.89h1.14l.52,2.56h.01v-2.56h.64v3.53h-1.05l-.61-2.95h-.01v2.95h-.64v-3.53Z"/>
        <path class="cls-2" d="M23.27,66.42v-3.53h.82v2.99h.89v.53h-1.71Z"/>
        <path class="cls-2" d="M25.3,66.42v-3.53h.82v3.53h-.82Z"/>
        <path class="cls-2" d="M26.51,62.89h1.14l.52,2.56h.01v-2.56h.64v3.53h-1.05l-.61-2.95h-.01v2.95h-.64v-3.53Z"/>
        <path class="cls-2" d="M29.21,66.42v-3.53h1.7v.53h-.88v.77h.85v.53h-.85v1.15h.88v.53h-1.7Z"/>
        <path class="cls-2" d="M34.3,62.89l.46,3.53h-.82l-.09-.87h-.45l-.13.87h-.69l.6-3.53h1.13ZM33.78,65.02l-.14-1.57h0l-.14,1.57h.3Z"/>
        <path class="cls-2" d="M35.1,62.89h1.14l.53,2.56h0v-2.56h.64v3.53h-1.05l-.61-2.95h0v2.95h-.64v-3.53Z"/>
        <path class="cls-2" d="M37.82,62.89h.85c.92,0,1.23.15,1.23,1.2v1.26c0,.67-.2,1.06-1.23,1.06h-.85v-3.53ZM38.64,65.91c.4,0,.44-.15.44-.49v-1.45c0-.47-.02-.57-.44-.57v2.52Z"/>
        <path class="cls-2" d="M43.24,66.24c-.09.1-.21.16-.34.2-.12.04-.26.05-.38.05-.54,0-.84-.22-.84-1.03v-1.6c0-.81.5-1.03,1.04-1.03.66,0,1.04.27,1.04.96v.37h-.83v-.49c0-.14-.04-.28-.22-.28s-.22.13-.22.28v1.98c0,.14.04.28.22.28s.22-.13.22-.28v-.47h-.31v-.53h1.13v1.78h-.48l-.04-.18Z"/>
        <path class="cls-2" d="M46.27,65.46c0,.81-.5,1.03-1.04,1.03s-1.04-.22-1.04-1.03v-1.6c0-.81.5-1.03,1.04-1.03s1.04.22,1.04,1.03v1.6ZM45.01,65.65c0,.14.04.28.22.28s.22-.13.22-.28v-1.98c0-.14-.04-.28-.22-.28s-.22.13-.22.28v1.98Z"/>
        <path class="cls-2" d="M48.05,66.42v-3.53h1.7v.53h-.88v.77h.85v.53h-.85v1.68h-.82Z"/>
        <path class="cls-2" d="M50.08,66.42v-3.53h.82v3.53h-.82Z"/>
        <path class="cls-2" d="M52.57,64.15v-.49c0-.17-.05-.27-.22-.27-.18,0-.22.1-.22.27,0,.59,1.26.77,1.26,1.86,0,.66-.36.97-1.04.97-.53,0-1.04-.18-1.04-.79v-.65h.82v.61c0,.21.06.27.22.27.13,0,.22-.06.22-.27,0-.8-1.26-.81-1.26-1.95,0-.64.42-.88,1.06-.88.55,0,1.02.19,1.02.78v.55h-.82Z"/>
        <path class="cls-2" d="M53.82,66.42v-3.53h.82v1.31h.44v-1.31h.82v3.53h-.82v-1.68h-.44v1.68h-.82Z"/>
        <path class="cls-2" d="M56.32,66.42v-3.53h.82v3.53h-.82Z"/>
        <path class="cls-2" d="M57.52,62.89h1.14l.52,2.56h.01v-2.56h.64v3.53h-1.05l-.61-2.95h0v2.95h-.64v-3.53Z"/>
        <path class="cls-2" d="M61.79,66.24c-.09.1-.21.16-.34.2-.12.04-.26.05-.38.05-.54,0-.84-.22-.84-1.03v-1.6c0-.81.5-1.03,1.04-1.03.66,0,1.04.27,1.04.96v.37h-.83v-.49c0-.14-.04-.28-.22-.28s-.22.13-.22.28v1.98c0,.14.04.28.22.28s.22-.13.22-.28v-.47h-.31v-.53h1.13v1.78h-.48l-.04-.18Z"/>
      </g>
      <g id="Number">
        <path class="cls-2" d="M.2,72.36c.28,0,.65-.08.71-.4h.69v3.52h-.82v-2.61H.2v-.51Z"/>
        <path class="cls-2" d="M2.47,75.48v-.83h.77v.83h-.77Z"/>
        <path class="cls-2" d="M2.15,80.92v.51H.06v-.44c0-1.13,1.27-1.64,1.27-2.34,0-.17-.08-.25-.22-.25s-.22.08-.22.25v.51H.06v-.39c0-.86.6-.94,1.07-.94s1.02.19,1.02.93c0,.81-.77,1.17-1.14,1.81-.06.11-.13.2-.13.34h1.27Z"/>
        <path class="cls-2" d="M2.47,81.43v-.83h.77v.83h-.77Z"/>
        <path class="cls-2" d="M.92,86.02v.59c0,.14.04.27.21.27s.21-.12.21-.27v-.45c0-.3-.17-.32-.39-.32h-.28v-.56h.32c.18,0,.35-.07.35-.31v-.41c0-.12-.08-.22-.21-.22-.21,0-.21.22-.21.38v.39H.1v-.51c0-.68.63-.83,1.02-.83.51,0,1.04.2,1.04.79v.22c0,.5-.2.68-.51.75t0,0v.03c.32.04.51.18.51.64v.39c0,.61-.48.85-1.04.85-.65,0-1.02-.25-1.02-.82v-.6h.82Z"/>
        <path class="cls-2" d="M2.47,87.38v-.83h.77v.83h-.77Z"/>
        <path class="cls-2" d="M0,91.95l.96-2.15h1v2.15h.27v.57h-.27v.81h-.77v-.81H0v-.57ZM.54,91.95h.64v-1.42h-.01l-.63,1.42Z"/>
        <path class="cls-2" d="M2.47,93.32v-.83h.77v.83h-.77Z"/>
      </g>
      <g id="French_Hook" data-name="French Hook">
        <path class="cls-2" d="M9.8,75.48v-3.52h.83c.78,0,1.25.08,1.25.82,0,.44-.18.73-.63.8h0c.4.02.63.17.63.67v.74c0,.14.02.35.12.49h-.83c-.1-.14-.12-.35-.12-.49v-.75c0-.25-.15-.37-.3-.37h-.13v1.61h-.82ZM10.62,73.37c.37,0,.43-.12.43-.46s-.06-.45-.43-.45v.91Z"/>
        <path class="cls-2" d="M12.3,75.48v-3.52h1.7v.53h-.88v.77h.85v.53h-.85v1.15h.88v.53h-1.7Z"/>
        <path class="cls-2" d="M14.32,72.49v-.53h1.97v.53h-.57v2.99h-.82v-2.99h-.57Z"/>
        <path class="cls-2" d="M16.66,75.48v-3.52h.82v3.52h-.82Z"/>
        <path class="cls-2" d="M17.88,75.48v-3.52h.83c.78,0,1.25.08,1.25.82,0,.44-.18.73-.63.8h0c.4.02.63.17.63.67v.74c0,.14.02.35.12.49h-.83c-.1-.14-.12-.35-.12-.49v-.75c0-.25-.15-.37-.3-.37h-.13v1.61h-.82ZM18.71,73.37c.37,0,.43-.12.43-.46s-.05-.45-.43-.45v.91Z"/>
        <path class="cls-2" d="M20.39,75.48v-3.52h1.7v.53h-.88v.77h.85v.53h-.85v1.15h.88v.53h-1.7Z"/>
        <path class="cls-2" d="M22.43,75.48v-3.52h.83c.78,0,1.25.08,1.25.82,0,.44-.18.73-.63.8h0c.4.02.63.17.63.67v.74c0,.14.02.35.12.49h-.83c-.1-.14-.12-.35-.12-.49v-.75c0-.25-.15-.37-.3-.37h-.13v1.61h-.82ZM23.25,73.37c.37,0,.43-.12.43-.46s-.05-.45-.43-.45v.91Z"/>
        <path class="cls-2" d="M26.3,75.48v-3.52h.83c.78,0,1.25.08,1.25.82,0,.44-.18.73-.63.8h0c.4.02.63.17.63.67v.74c0,.14.02.35.12.49h-.83c-.1-.14-.12-.35-.12-.49v-.75c0-.25-.15-.37-.3-.37h-.13v1.61h-.82ZM27.12,73.37c.37,0,.43-.12.43-.46s-.05-.45-.43-.45v.91Z"/>
        <path class="cls-2" d="M28.8,75.48v-3.52h.82v3.52h-.82Z"/>
        <path class="cls-2" d="M30,71.96h1.14l.52,2.56h.01v-2.56h.64v3.52h-1.05l-.61-2.95h0v2.95h-.64v-3.52Z"/>
        <path class="cls-2" d="M34.27,75.31c-.09.1-.21.16-.34.2-.12.04-.26.05-.38.05-.54,0-.84-.22-.84-1.03v-1.6c0-.81.5-1.03,1.04-1.03.66,0,1.04.27,1.04.96v.37h-.83v-.49c0-.14-.04-.28-.22-.28s-.22.13-.22.28v1.98c0,.14.04.28.22.28s.22-.13.22-.28v-.47h-.31v-.53h1.13v1.78h-.48l-.04-.18Z"/>
        <path class="cls-2" d="M35.22,75.48v-3.52h1.01c.65,0,1.07.15,1.07.76v.64c0,.53-.47.76-.96.76h-.3v1.36h-.82ZM36.05,73.62h.13c.29,0,.31-.16.31-.57s-.02-.58-.31-.58h-.13v1.15Z"/>
        <path class="cls-2" d="M39.81,74.48c-.02.75-.28,1.07-1.04,1.07-1.02,0-1.04-.71-1.04-1.15v-2.44h.82v2.54c0,.28,0,.49.21.49s.22-.21.22-.49v-2.54h.82v2.52Z"/>
        <path class="cls-2" d="M40.23,75.48v-3.52h.82v2.99h.89v.53h-1.71Z"/>
        <path class="cls-2" d="M42.27,75.48v-3.52h.82v2.99h.89v.53h-1.71Z"/>
        <path class="cls-2" d="M45.68,71.96h.85c.92,0,1.23.15,1.23,1.2v1.26c0,.67-.2,1.06-1.23,1.06h-.85v-3.52ZM46.5,74.98c.4,0,.44-.15.44-.49v-1.45c0-.47-.02-.57-.44-.57v2.52Z"/>
        <path class="cls-2" d="M48.18,75.48v-3.52h1.7v.53h-.88v.77h.85v.53h-.85v1.15h.88v.53h-1.7Z"/>
        <path class="cls-2" d="M51.58,75.48v-3.52h.82v2.99h.89v.53h-1.71Z"/>
        <path class="cls-2" d="M55.3,71.96l.46,3.52h-.82l-.09-.87h-.45l-.13.87h-.69l.6-3.52h1.13ZM54.79,74.08l-.14-1.57h0l-.14,1.57h.3Z"/>
        <path class="cls-2" d="M57.49,71.96h.83c.7,0,1.25,0,1.25.86,0,.39-.11.74-.58.79v.03c.52,0,.58.39.58.84,0,.97-.38,1-1.25,1h-.83v-3.52ZM58.32,73.39c.26-.01.44.07.44-.46,0-.35-.03-.49-.44-.47v.93ZM58.32,74.98c.44.04.44-.21.44-.58,0-.5-.09-.51-.44-.51v1.09Z"/>
        <path class="cls-2" d="M62.08,74.52c0,.81-.5,1.03-1.04,1.03s-1.04-.22-1.04-1.03v-1.6c0-.81.5-1.03,1.04-1.03s1.04.22,1.04,1.03v1.6ZM60.82,74.71c0,.14.04.28.22.28s.22-.13.22-.28v-1.98c0-.14-.04-.28-.22-.28s-.22.13-.22.28v1.98Z"/>
        <path class="cls-2" d="M63.15,71.05l.49.7h-.29l-.46-.36-.41.36h-.32l.47-.7h.53ZM62.49,75.48v-3.52h.82v3.52h-.82Z"/>
        <path class="cls-2" d="M63.69,72.49v-.53h1.97v.53h-.57v2.99h-.82v-2.99h-.57Z"/>
        <path class="cls-2" d="M66.04,75.48v-3.52h1.7v.53h-.88v.77h.85v.53h-.85v1.15h.88v.53h-1.7Z"/>
        <path class="cls-2" d="M11.89,80.06v.47c0,.66-.35.98-1.04.98-.54,0-1.03-.22-1.03-1.03v-1.6c0-.81.49-1.03,1.03-1.03.6,0,1.04.18,1.04.94v.39h-.82v-.49c0-.14-.04-.28-.22-.28-.17,0-.21.13-.21.28v1.98c0,.14.04.28.21.28.18,0,.22-.13.22-.28v-.6h.82Z"/>
        <path class="cls-2" d="M14.39,80.47c0,.81-.49,1.03-1.04,1.03s-1.04-.22-1.04-1.03v-1.6c0-.81.49-1.03,1.04-1.03s1.04.22,1.04,1.03v1.6ZM13.14,80.66c0,.14.04.28.22.28s.22-.13.22-.28v-1.98c0-.14-.04-.28-.22-.28s-.22.13-.22.28v1.98Z"/>
        <path class="cls-2" d="M16.9,80.43c-.02.75-.28,1.07-1.04,1.07-1.02,0-1.04-.71-1.04-1.15v-2.44h.82v2.54c0,.28,0,.49.21.49s.22-.21.22-.49v-2.54h.82v2.52Z"/>
        <path class="cls-2" d="M17.33,81.43v-3.53h1c.65,0,1.08.15,1.08.76v.64c0,.53-.47.76-.96.76h-.3v1.36h-.82ZM18.15,79.56h.13c.29,0,.31-.16.31-.57s-.02-.58-.31-.58h-.13v1.15Z"/>
        <path class="cls-2" d="M19.83,81.43v-3.53h1.7v.53h-.88v.77h.85v.53h-.85v1.15h.88v.53h-1.7Z"/>
        <path class="cls-2" d="M21.87,81.43v-3.53h.83c.78,0,1.25.08,1.25.82,0,.44-.18.73-.63.8h0c.4.02.63.17.63.67v.74c0,.14.02.35.12.49h-.83c-.1-.14-.12-.35-.12-.49v-.75c0-.25-.15-.37-.3-.37h-.13v1.61h-.82ZM22.69,79.32c.37,0,.43-.12.43-.46s-.05-.45-.43-.45v.91Z"/>
        <path class="cls-2" d="M27,79.17v-.49c0-.17-.05-.27-.22-.27-.18,0-.22.1-.22.27,0,.59,1.26.77,1.26,1.86,0,.66-.36.97-1.04.97-.52,0-1.03-.18-1.03-.79v-.65h.82v.61c0,.21.06.27.22.27.13,0,.22-.06.22-.27,0-.8-1.26-.81-1.26-1.95,0-.64.42-.88,1.05-.88.55,0,1.02.19,1.02.78v.55h-.82Z"/>
        <path class="cls-2" d="M30.33,80.43c-.02.75-.28,1.07-1.04,1.07-1.01,0-1.03-.71-1.03-1.15v-2.44h.82v2.54c0,.28,0,.49.21.49.22,0,.22-.21.22-.49v-2.54h.82v2.52Z"/>
        <path class="cls-2" d="M30.75,81.43v-3.53h.83c.78,0,1.25.08,1.25.82,0,.44-.18.73-.63.8h0c.4.02.63.17.63.67v.74c0,.14.02.35.12.49h-.83c-.1-.14-.12-.35-.12-.49v-.75c0-.25-.15-.37-.3-.37h-.13v1.61h-.82ZM31.57,79.32c.37,0,.43-.12.43-.46s-.05-.45-.43-.45v.91Z"/>
        <path class="cls-2" d="M34.61,81.43v-3.53h.82v2.99h.89v.53h-1.71Z"/>
        <path class="cls-2" d="M36.65,81.43v-3.53h.82v3.53h-.82Z"/>
        <path class="cls-2" d="M39.44,81.25c-.09.1-.21.16-.34.2-.12.04-.26.05-.38.05-.54,0-.84-.22-.84-1.03v-1.6c0-.81.5-1.03,1.04-1.03.66,0,1.04.27,1.04.96v.37h-.83v-.49c0-.14-.04-.28-.22-.28s-.22.13-.22.28v1.98c0,.14.04.28.22.28s.22-.13.22-.28v-.47h-.31v-.53h1.13v1.78h-.48l-.04-.18Z"/>
        <path class="cls-2" d="M40.36,77.91h1.14l.52,2.56h.01v-2.56h.64v3.53h-1.05l-.61-2.95h0v2.95h-.64v-3.53Z"/>
        <path class="cls-2" d="M43.07,81.43v-3.53h1.7v.53h-.88v.77h.85v.53h-.85v1.15h.88v.53h-1.7Z"/>
        <path class="cls-2" d="M46.37,79.17v-.49c0-.17-.05-.27-.22-.27-.18,0-.22.1-.22.27,0,.59,1.26.77,1.26,1.86,0,.66-.36.97-1.04.97-.53,0-1.04-.18-1.04-.79v-.65h.82v.61c0,.21.06.27.22.27.13,0,.22-.06.22-.27,0-.8-1.26-.81-1.26-1.95,0-.64.42-.88,1.06-.88.55,0,1.02.19,1.02.78v.55h-.82Z"/>
        <path class="cls-2" d="M9.77,84.39v-.53h1.97v.53h-.57v2.99h-.82v-2.99h-.57Z"/>
        <path class="cls-2" d="M14.2,86.42c0,.81-.49,1.03-1.04,1.03s-1.04-.22-1.04-1.03v-1.6c0-.81.49-1.03,1.04-1.03s1.04.22,1.04,1.03v1.6ZM12.95,86.6c0,.14.04.28.22.28s.22-.13.22-.28v-1.98c0-.14-.04-.28-.22-.28s-.22.13-.22.28v1.98Z"/>
        <path class="cls-2" d="M16.71,86.37c-.02.75-.28,1.07-1.04,1.07-1.02,0-1.04-.71-1.04-1.15v-2.44h.82v2.54c0,.28,0,.49.21.49s.22-.21.22-.49v-2.54h.82v2.52Z"/>
        <path class="cls-2" d="M17.13,87.38v-3.53h.83c.78,0,1.25.08,1.25.82,0,.44-.18.73-.63.8h0c.4.02.63.17.63.67v.74c0,.14.02.35.12.49h-.83c-.1-.14-.12-.35-.12-.49v-.75c0-.25-.15-.37-.3-.37h-.13v1.61h-.82ZM17.95,85.26c.37,0,.43-.12.43-.46s-.05-.45-.43-.45v.91Z"/>
        <path class="cls-2" d="M19.62,83.85h1.14l.52,2.56h.01v-2.56h.64v3.53h-1.05l-.61-2.95h-.01v2.95h-.64v-3.53Z"/>
        <path class="cls-2" d="M22.32,87.38v-3.53h1.7v.53h-.88v.77h.85v.53h-.85v1.15h.88v.53h-1.7Z"/>
        <path class="cls-2" d="M24.29,87.38v-.6l.92-2.39h-.92v-.53h1.78v.52l-.96,2.47h.96v.53h-1.78Z"/>
        <path class="cls-2" d="M27.76,87.38v-3.53h1.7v.53h-.88v.77h.85v.53h-.85v1.15h.88v.53h-1.7Z"/>
        <path class="cls-2" d="M29.77,84.39v-.53h1.97v.53h-.57v2.99h-.82v-2.99h-.57Z"/>
        <path class="cls-2" d="M33.49,87.38v-3.53h1.01c.65,0,1.07.15,1.07.76v.64c0,.53-.47.76-.96.76h-.3v1.36h-.82ZM34.31,85.51h.13c.29,0,.31-.16.31-.57s-.02-.58-.31-.58h-.13v1.15Z"/>
        <path class="cls-2" d="M35.99,87.38v-3.53h.82v2.99h.89v.53h-1.71Z"/>
        <path class="cls-2" d="M38.02,87.38v-3.53h.82v3.53h-.82Z"/>
        <path class="cls-2" d="M39.25,87.38v-3.53h1.7v.53h-.88v.77h.85v.53h-.85v1.15h.88v.53h-1.7Z"/>
        <path class="cls-2" d="M41.22,87.38v-.6l.92-2.39h-.92v-.53h1.78v.52l-.96,2.47h.96v.53h-1.78Z"/>
        <path class="cls-2" d="M44.69,87.38v-3.53h.82v2.99h.89v.53h-1.71Z"/>
        <path class="cls-2" d="M48.41,83.85l.46,3.53h-.82l-.09-.87h-.45l-.13.87h-.69l.6-3.53h1.13ZM47.9,85.98l-.14-1.57h0l-.14,1.57h.3Z"/>
        <path class="cls-2" d="M50.61,83.85h.83c.7,0,1.25.01,1.25.86,0,.39-.11.74-.58.79v.03c.52,0,.58.39.58.84,0,.97-.38,1-1.25,1h-.83v-3.53ZM51.43,85.28c.26-.02.44.07.44-.46,0-.35-.03-.49-.44-.47v.93ZM51.43,86.87c.44.04.44-.21.44-.58,0-.5-.09-.5-.44-.5v1.08Z"/>
        <path class="cls-2" d="M55.19,86.42c0,.81-.5,1.03-1.04,1.03s-1.04-.22-1.04-1.03v-1.6c0-.81.5-1.03,1.04-1.03s1.04.22,1.04,1.03v1.6ZM53.94,86.6c0,.14.04.28.22.28s.22-.13.22-.28v-1.98c0-.14-.04-.28-.22-.28s-.22.13-.22.28v1.98Z"/>
        <path class="cls-2" d="M57.7,86.37c-.02.75-.28,1.07-1.04,1.07-1.02,0-1.04-.71-1.04-1.15v-2.44h.82v2.54c0,.28,0,.49.21.49s.22-.21.22-.49v-2.54h.82v2.52Z"/>
        <path class="cls-2" d="M60.21,86v.47c0,.66-.35.98-1.04.98-.54,0-1.04-.22-1.04-1.03v-1.6c0-.81.49-1.03,1.04-1.03.6,0,1.04.18,1.04.94v.39h-.82v-.49c0-.14-.04-.28-.22-.28-.17,0-.21.13-.21.28v1.98c0,.14.04.28.21.28.18,0,.22-.13.22-.28v-.6h.82Z"/>
        <path class="cls-2" d="M60.63,87.38v-3.53h.82v2.99h.89v.53h-1.71Z"/>
        <path class="cls-2" d="M62.67,87.38v-3.53h1.7v.53h-.88v.77h.85v.53h-.85v1.15h.88v.53h-1.7Z"/>
        <path class="cls-2" d="M66.01,83.85h.88l.2,2.72h0l.36-2.72h.77l-.59,3.53h-1.08l-.54-3.53Z"/>
        <path class="cls-2" d="M68.57,87.38v-3.53h1.7v.53h-.88v.77h.85v.53h-.85v1.15h.88v.53h-1.7Z"/>
        <path class="cls-2" d="M70.62,87.38v-3.53h.83c.78,0,1.25.08,1.25.82,0,.44-.18.73-.63.8h0c.4.02.63.17.63.67v.74c0,.14.02.35.12.49h-.83c-.1-.14-.12-.35-.12-.49v-.75c0-.25-.15-.37-.3-.37h-.13v1.61h-.82ZM71.44,85.26c.37,0,.43-.12.43-.46s-.05-.45-.43-.45v.91Z"/>
        <path class="cls-2" d="M74.39,85.11v-.49c0-.17-.05-.27-.22-.27-.18,0-.22.1-.22.27,0,.59,1.26.77,1.26,1.86,0,.66-.36.97-1.04.97-.53,0-1.04-.18-1.04-.79v-.65h.82v.61c0,.21.06.27.22.27.13,0,.22-.06.22-.27,0-.8-1.26-.81-1.26-1.95,0-.64.42-.88,1.06-.88.55,0,1.02.19,1.02.78v.55h-.82Z"/>
        <path class="cls-2" d="M76.99,87.38v-3.53h.82v2.99h.89v.53h-1.71Z"/>
        <path class="cls-2" d="M79.24,83.85l-.39,1.24h-.5l.16-1.24h.73Z"/>
        <path class="cls-2" d="M81.29,83.85l.46,3.53h-.82l-.09-.87h-.45l-.13.87h-.69l.6-3.53h1.13ZM80.78,85.98l-.14-1.57h0l-.14,1.57h.3Z"/>
        <path class="cls-2" d="M82.12,87.38v-3.53h.83c.78,0,1.25.08,1.25.82,0,.44-.18.73-.63.8h0c.4.02.63.17.63.67v.74c0,.14.02.35.12.49h-.83c-.1-.14-.12-.35-.12-.49v-.75c0-.25-.15-.37-.3-.37h-.13v1.61h-.82ZM82.94,85.26c.37,0,.43-.12.43-.46s-.05-.45-.43-.45v.91Z"/>
        <path class="cls-2" d="M84.63,87.38v-3.53h.83c.78,0,1.25.08,1.25.82,0,.44-.18.73-.63.8h0c.4.02.63.17.63.67v.74c0,.14.02.35.12.49h-.83c-.1-.14-.12-.35-.12-.49v-.75c0-.25-.15-.37-.3-.37h-.13v1.61h-.82ZM85.45,85.26c.37,0,.43-.12.43-.46s-.05-.45-.43-.45v.91Z"/>
        <path class="cls-2" d="M87.13,87.38v-3.53h.82v3.53h-.82Z"/>
        <path class="cls-2" d="M88.35,87.38v-3.53h1.7v.53h-.88v.77h.85v.53h-.85v1.15h.88v.53h-1.7ZM89.19,83.64l-.72-.7h.57l.49.7h-.33Z"/>
        <path class="cls-2" d="M90.39,87.38v-3.53h.83c.78,0,1.25.08,1.25.82,0,.44-.18.73-.63.8h0c.4.02.63.17.63.67v.74c0,.14.02.35.12.49h-.83c-.1-.14-.12-.35-.12-.49v-.75c0-.25-.15-.37-.3-.37h-.13v1.61h-.82ZM91.22,85.26c.37,0,.43-.12.43-.46s-.05-.45-.43-.45v.91Z"/>
        <path class="cls-2" d="M92.9,87.38v-3.53h1.7v.53h-.88v.77h.85v.53h-.85v1.15h.88v.53h-1.7Z"/>
        <path class="cls-2" d="M11.48,89.8l.46,3.53h-.82l-.09-.87h-.45l-.13.87h-.69l.6-3.53h1.13ZM10.97,91.92l-.14-1.57h0l-.14,1.57h.3Z"/>
        <path class="cls-2" d="M11.91,90.33v-.53h1.97v.53h-.57v2.99h-.82v-2.99h-.57Z"/>
        <path class="cls-2" d="M14.23,90.33v-.53h1.97v.53h-.57v2.99h-.82v-2.99h-.57Z"/>
        <path class="cls-2" d="M17.8,89.8l.46,3.53h-.82l-.09-.87h-.45l-.13.87h-.69l.6-3.53h1.13ZM17.29,91.92l-.14-1.57h-.01l-.14,1.57h.3Z"/>
        <path class="cls-2" d="M20.72,91.95v.47c0,.66-.35.98-1.04.98-.55,0-1.04-.22-1.04-1.03v-1.6c0-.81.49-1.03,1.04-1.03.6,0,1.04.18,1.04.94v.39h-.82v-.49c0-.14-.04-.28-.22-.28-.17,0-.21.13-.21.28v1.98c0,.14.04.28.21.28.18,0,.22-.13.22-.28v-.6h.82Z"/>
        <path class="cls-2" d="M21.14,93.32v-3.53h.82v1.31h.44v-1.31h.82v3.53h-.82v-1.68h-.44v1.68h-.82Z"/>
        <path class="cls-2" d="M23.64,93.32v-3.53h1.7v.53h-.88v.77h.85v.53h-.85v1.15h.88v.53h-1.7Z"/>
        <path class="cls-2" d="M25.61,93.32v-.6l.92-2.39h-.92v-.53h1.78v.52l-.96,2.47h.96v.53h-1.78Z"/>
        <path class="cls-2" d="M29.08,93.32v-3.53h.82v2.99h.89v.53h-1.71Z"/>
        <path class="cls-2" d="M32.81,89.8l.46,3.53h-.82l-.09-.87h-.45l-.13.87h-.69l.6-3.53h1.13ZM32.29,91.92l-.14-1.57h0l-.14,1.57h.3Z"/>
        <path class="cls-2" d="M34.99,93.32v-3.53h.82v2.99h.89v.53h-1.71Z"/>
        <path class="cls-2" d="M37.02,93.32v-3.53h.82v3.53h-.82Z"/>
        <path class="cls-2" d="M39.81,93.14c-.09.1-.21.16-.34.2-.12.04-.26.05-.38.05-.54,0-.84-.22-.84-1.03v-1.6c0-.81.5-1.03,1.04-1.03.66,0,1.04.27,1.04.96v.37h-.83v-.49c0-.14-.04-.28-.22-.28s-.22.13-.22.28v1.98c0,.14.04.28.22.28s.22-.13.22-.28v-.47h-.31v-.53h1.13v1.78h-.48l-.04-.18Z"/>
        <path class="cls-2" d="M40.74,89.8h1.14l.53,2.56h0v-2.56h.64v3.53h-1.05l-.61-2.95h0v2.95h-.64v-3.53Z"/>
        <path class="cls-2" d="M43.44,93.32v-3.53h1.7v.53h-.88v.77h.85v.53h-.85v1.15h.88v.53h-1.7Z"/>
        <path class="cls-2" d="M46.84,93.32v-3.53h1.7v.53h-.88v.77h.85v.53h-.85v1.15h.88v.53h-1.7Z"/>
        <path class="cls-2" d="M48.85,90.33v-.53h1.97v.53h-.57v2.99h-.82v-2.99h-.57Z"/>
        <path class="cls-2" d="M52.57,93.32v-3.53h1.01c.65,0,1.07.15,1.07.76v.64c0,.53-.47.76-.96.76h-.3v1.36h-.82ZM53.39,91.46h.13c.29,0,.31-.16.31-.57s-.02-.58-.31-.58h-.13v1.15Z"/>
        <path class="cls-2" d="M56.48,89.8l.46,3.53h-.82l-.09-.87h-.45l-.13.87h-.69l.6-3.53h1.13ZM55.96,91.92l-.14-1.57h0l-.14,1.57h.3Z"/>
        <path class="cls-2" d="M57.3,93.32v-3.53h.83c.78,0,1.25.08,1.25.82,0,.44-.18.73-.63.8h0c.4.02.63.17.63.67v.74c0,.14.02.35.12.49h-.83c-.1-.14-.12-.35-.12-.49v-.75c0-.25-.15-.37-.3-.37h-.13v1.61h-.82ZM58.12,91.21c.37,0,.43-.12.43-.46s-.05-.45-.43-.45v.91Z"/>
        <path class="cls-2" d="M59.69,90.33v-.53h1.97v.53h-.57v2.99h-.82v-2.99h-.57Z"/>
        <path class="cls-2" d="M62.04,93.32v-3.53h1.7v.53h-.88v.77h.85v.53h-.85v1.15h.88v.53h-1.7Z"/>
        <path class="cls-2" d="M64.01,93.32v-.6l.92-2.39h-.92v-.53h1.78v.52l-.96,2.47h.96v.53h-1.78Z"/>
        <path class="cls-2" d="M69.16,89.8l.46,3.53h-.82l-.09-.87h-.45l-.13.87h-.69l.6-3.53h1.13ZM68.55,89.59l-.72-.7h.57l.49.7h-.33ZM68.65,91.92l-.14-1.57h0l-.14,1.57h.3Z"/>
        <path class="cls-2" d="M71.35,93.32v-3.53h.82v2.99h.89v.53h-1.71Z"/>
        <path class="cls-2" d="M75.07,89.8l.46,3.53h-.82l-.09-.87h-.45l-.13.87h-.69l.6-3.53h1.13ZM74.55,91.92l-.14-1.57h0l-.14,1.57h.3Z"/>
        <path class="cls-2" d="M77.26,93.32v-3.53h1.01c.65,0,1.07.15,1.07.76v.64c0,.53-.47.76-.96.76h-.3v1.36h-.82ZM78.08,91.46h.13c.29,0,.31-.16.31-.57s-.02-.58-.31-.58h-.13v1.15Z"/>
        <path class="cls-2" d="M79.76,93.32v-3.53h1.7v.53h-.88v.77h.85v.53h-.85v1.15h.88v.53h-1.7ZM80.82,88.89l.49.7h-.29l-.46-.36-.41.36h-.32l.47-.7h.53Z"/>
        <path class="cls-2" d="M83.89,91.95v.47c0,.66-.35.98-1.04.98-.54,0-1.04-.22-1.04-1.03v-1.6c0-.81.49-1.03,1.04-1.03.6,0,1.04.18,1.04.94v.39h-.82v-.49c0-.14-.04-.28-.22-.28-.17,0-.21.13-.21.28v1.98c0,.14.04.28.21.28.18,0,.22-.13.22-.28v-.6h.82Z"/>
        <path class="cls-2" d="M84.32,93.32v-3.53h.82v1.31h.44v-1.31h.82v3.53h-.82v-1.68h-.44v1.68h-.82Z"/>
        <path class="cls-2" d="M86.82,93.32v-3.53h1.7v.53h-.88v.77h.85v.53h-.85v1.15h.88v.53h-1.7Z"/>
      </g>
      <line id="Cut_Line-2" data-name="Cut Line" class="cls-1" x1="41.63" y1="52.52" x2="93.3" y2="52.8"/>
      <line id="Cutline" class="cls-1" x1="50.75" y1="79.7" x2="93.3" y2="79.7"/>
      <path id="Pull" class="cls-2" d="M24.63,17.48c-.08-3.11-.27-6.25-.57-9.34l-.02-.09c-.48-1.73-1.88-3.66-3.85-5.28-1.72-1.41-3.63-2.3-5.7-2.62-2.22-.35-4.51-.02-6.57.87l.02,1.21h-.44s-.01-1.01-.01-1.01c-1.21.59-2.33,1.37-3.28,2.33-2.18,2.23-2.97,4.8-3.25,6.57v.05s0,.05,0,.05c.09,2.52.06,5.01-.07,7.44l.81.79-.31.32-.53-.52c-.06.94-.13,1.87-.22,2.78-.03.33-.06.64-.1.95-.21,2-.37,3.57.05,5.76.32,1.69.86,4.52,3.27,6.84,2.33,2.24,5.05,2.68,6.36,2.89.98.16,1.9.23,2.75.23,3.83,0,6.34-1.45,7.85-2.82,2.88-2.6,3.56-5.99,3.72-7.79.14-3.19.17-6.42.09-9.62ZM10.6,9.52c1.3-1.25,2.78-1.41,3.73-.48.96.94.63,2.49.6,2.58-.05.1-.63,1.3-1.92,1.48-1.54.22-2.48-1.25-2.52-1.31-.68-1.1.06-2.1.11-2.28ZM8.03,7.52h-.44s-.02-1.34-.02-1.34h.44s.02,1.34.02,1.34ZM7.97,3.53l.02,1.35h-.44s-.02-1.34-.02-1.34h.44ZM3.29,20.61l-.97-.94.31-.32.97.94-.31.32ZM15.5,33.34c-2.79.63-6.1.46-8.38-1.77-2.25-2.19-2.8-5.85-.37-7.6l-.62-.61.31-.32.7.68c2.82-1.47,10.33-.35,10.33-.35,2.22.8,3.49,2.31,3.72,4.36.23,2.05-2.89,4.97-5.68,5.6ZM4.23,21.52l.31-.32.97.94-.31.32-.97-.94ZM20.24,22.38l-.02-1.35h.44s.02,1.34.02,1.34h-.44ZM20.7,23.68l.02,1.35h-.44s-.02-1.34-.02-1.34h.44ZM20.2,19.73l-.02-1.35h.44s.02,1.34.02,1.34h-.44ZM12.51,20.23c-11.24,0-8.79-8.98-7.78-10.27.48-.61,2.6-.29,2.85-.15.02,0,.03.02.04.03v-1s.43,0,.43,0l.02,1.35h-.07c.81,1.06-.03,3.11,1.63,4.3,1.58,1.13,4.71,1.33,6.16-.17,1.36-1.41.2-3.93,1.65-4.63.8-.38,2.38-.06,2.68.2,1.08.96,1.09,3.54,1.07,3.7,0,0,1.89,6.65-8.68,6.65Z"/>
      <path id="Hook" class="cls-2" d="M59.13,14.67c-.34-3.55-.7-3.85-.83-3.96-.42-.35-.83-.72-1.21-1.07-.14-.13-.28-.25-.42-.38.04-.09.08-.2.09-.33.07-.67.35-4.11-1.33-5.92-.7-.76-1.64-1.14-2.79-1.11-1.55.04-2.89.69-3.87,1.87-1.31,1.58-1.76,3.84-1.54,5.27.23,1.43,1.75,1.46,3.22,1.48,1.48.03,3.02.05,3.73,1.21,1.1,1.81,1.13,13.34-.67,19.04-.58,1.85-4.56,4.01-8.38,3.9-2.83-.08-4.28-1.45-5-2.58-1.02-1.6-1.02-3.35-.84-3.74.43-.97,1.34-1.55,1.34-1.55l.54-.33-7.19-7.13,1.06,7.01c-.91,2.59.04,5.17,1,6.89,1.35,2.41,3.62,4.59,5.05,4.86,1.42.27,3.05.47,4.77.47,3.15,0,6.6-.68,9.56-2.84,3-2.2,3.81-8.49,3.95-13.39.1-3.39-.11-6.26-.24-7.67ZM53.88,5.21c.01.06.02.12.03.16,0,.21-.24.92-.37,1.31-.03.1-.06.19-.09.27-.71-.36-1.52-.7-2.5-1,.33-.34,1.01-.88,1.93-1.37.3-.16.54-.22.66-.16.2.09.29.56.34.79Z"/>
    </g>
  </g>
</svg>