<?xml version="1.0" encoding="UTF-8"?>
<svg id="Layer_2" data-name="Layer 2" xmlns="http://www.w3.org/2000/svg" viewBox="0 0 85.15 77.5">
  <defs>
    <style>
      .cls-1 {
        fill: #0c363a;
      }

      .cls-2 {
        stroke-width: .45px;
      }

      .cls-2, .cls-3 {
        fill: none;
        stroke: #0c363a;
        stroke-linecap: round;
        stroke-miterlimit: 10;
      }

      .cls-3 {
        stroke-width: .9px;
      }
    </style>
  </defs>
  <g id="DESIGN_LAYERS_-_Make_more_if_needed" data-name="DESIGN LAYERS - Make more if needed">
    <g>
      <g>
        <path class="cls-1" d="M1.82.1h1.2c1.3,0,1.74.21,1.74,1.7v1.78c0,.95-.28,1.51-1.74,1.51h-1.2V.1ZM2.98,4.37c.57,0,.62-.22.62-.69V1.62c0-.67-.03-.81-.62-.81v3.56Z"/>
        <path class="cls-1" d="M8.01,3.73c0,1.14-.7,1.46-1.47,1.46s-1.47-.31-1.47-1.46V1.46c0-1.14.7-1.46,1.47-1.46s1.47.32,1.47,1.46v2.27ZM6.23,3.99c0,.2.06.39.31.39s.31-.19.31-.39V1.19c0-.2-.06-.39-.31-.39s-.31.19-.31.39v2.8Z"/>
        <path class="cls-1" d="M9.9.1h1.61l.74,3.63h.01V.1h.91v4.99h-1.49l-.86-4.17h-.01v4.17h-.91V.1Z"/>
        <path class="cls-1" d="M16.38,3.73c0,1.14-.7,1.46-1.47,1.46s-1.47-.31-1.47-1.46V1.46c0-1.14.7-1.46,1.47-1.46s1.47.32,1.47,1.46v2.27ZM14.6,3.99c0,.2.06.39.31.39s.31-.19.31-.39V1.19c0-.2-.06-.39-.31-.39s-.31.19-.31.39v2.8Z"/>
        <path class="cls-1" d="M16.63.85V.1h2.79v.76h-.81v4.23h-1.16V.85h-.81Z"/>
        <path class="cls-1" d="M21.28,5.08V.1h2.41v.76h-1.25v1.09h1.21v.76h-1.21v2.38h-1.16Z"/>
        <path class="cls-1" d="M23.87,5.08V.1h2.41v.76h-1.25v1.09h1.21v.76h-1.21v1.62h1.25v.76h-2.41Z"/>
        <path class="cls-1" d="M26.46,5.08V.1h2.41v.76h-1.25v1.09h1.21v.76h-1.21v1.62h1.25v.76h-2.41Z"/>
        <path class="cls-1" d="M29.06.1h1.2c1.3,0,1.74.21,1.74,1.7v1.78c0,.95-.28,1.51-1.74,1.51h-1.2V.1ZM30.23,4.37c.57,0,.62-.22.62-.69V1.62c0-.67-.03-.81-.62-.81v3.56Z"/>
        <path class="cls-1" d="M33.88.85V.1h2.79v.76h-.81v4.23h-1.16V.85h-.81Z"/>
        <path class="cls-1" d="M36.92,5.08V.1h1.16v1.85h.62V.1h1.16v4.99h-1.16v-2.38h-.62v2.38h-1.16Z"/>
        <path class="cls-1" d="M40.15,5.08V.1h2.41v.76h-1.25v1.09h1.2v.76h-1.2v1.62h1.25v.76h-2.41Z"/>
        <path class="cls-1" d="M44.37,5.08V.1h2.41v.76h-1.25v1.09h1.2v.76h-1.2v2.38h-1.16Z"/>
        <path class="cls-1" d="M46.95,5.08V.1h1.16v4.99h-1.16Z"/>
        <path class="cls-1" d="M50.18,1.88v-.7c0-.25-.08-.38-.31-.38-.25,0-.31.14-.31.38,0,.84,1.78,1.09,1.78,2.63,0,.94-.5,1.37-1.48,1.37-.74,0-1.46-.25-1.46-1.11v-.92h1.16v.86c0,.29.09.38.31.38.19,0,.31-.08.31-.38,0-1.13-1.78-1.15-1.78-2.76,0-.9.59-1.25,1.49-1.25.78,0,1.45.27,1.45,1.1v.78h-1.16Z"/>
        <path class="cls-1" d="M51.65,5.08V.1h1.16v1.85h.62V.1h1.16v4.99h-1.16v-2.38h-.62v2.38h-1.16Z"/>
        <path class="cls-1" d="M55.11,3.62V.1h1.08v3.52h-1.08ZM55.11,5.08v-1.18h1.08v1.18h-1.08Z"/>
        <path class="cls-1" d="M1.78,8.5h1.61l.74,3.63h.01v-3.63h.91v4.99h-1.49l-.86-4.17h-.01v4.17h-.91v-4.99Z"/>
        <path class="cls-1" d="M5.31,13.48v-4.99h2.41v.76h-1.25v1.09h1.2v.76h-1.2v1.62h1.25v.76h-2.41Z"/>
        <path class="cls-1" d="M9.54,13.48v-4.99h1.42c.92,0,1.52.21,1.52,1.07v.91c0,.75-.67,1.08-1.35,1.08h-.43v1.93h-1.16ZM10.7,10.84h.18c.41,0,.43-.22.43-.81s-.03-.82-.43-.82h-.18v1.63Z"/>
        <path class="cls-1" d="M14.77,8.5l.64,4.99h-1.16l-.13-1.23h-.63l-.19,1.23h-.98l.85-4.99h1.6ZM14.04,11.5l-.2-2.22h-.01l-.2,2.22h.42Z"/>
        <path class="cls-1" d="M17.43,10.28v-.7c0-.25-.08-.38-.31-.38-.25,0-.31.14-.31.38,0,.84,1.78,1.09,1.78,2.63,0,.94-.5,1.37-1.48,1.37-.74,0-1.46-.25-1.46-1.11v-.92h1.16v.86c0,.29.09.38.31.38.19,0,.31-.08.31-.38,0-1.13-1.78-1.15-1.78-2.76,0-.9.59-1.25,1.49-1.25.78,0,1.45.27,1.45,1.1v.78h-1.16Z"/>
        <path class="cls-1" d="M20.48,8.5h1.61l.74,3.63h.01v-3.63h.91v4.99h-1.49l-.86-4.17h-.01v4.17h-.91v-4.99Z"/>
        <path class="cls-1" d="M26.96,12.13c0,1.14-.7,1.46-1.47,1.46s-1.47-.31-1.47-1.46v-2.27c0-1.14.7-1.46,1.47-1.46s1.47.32,1.47,1.46v2.27ZM25.18,12.39c0,.2.06.39.31.39s.31-.19.31-.39v-2.8c0-.2-.06-.39-.31-.39s-.31.19-.31.39v2.8Z"/>
        <path class="cls-1" d="M30.21,12.06c-.03,1.06-.39,1.52-1.48,1.52-1.44,0-1.46-1-1.46-1.63v-3.45h1.16v3.59c0,.4,0,.69.3.69s.32-.29.32-.69v-3.59h1.16v3.56Z"/>
        <path class="cls-1" d="M30.5,13.48v-4.99h1.17c1.11,0,1.76.11,1.76,1.16,0,.62-.26,1.03-.89,1.13h0c.56.03.89.24.89.95v1.04c0,.2.04.49.17.69h-1.17c-.14-.2-.17-.5-.17-.69v-1.06c0-.35-.21-.53-.42-.53h-.19v2.28h-1.16ZM31.66,10.49c.53,0,.61-.18.61-.64s-.08-.64-.61-.64v1.28Z"/>
        <path class="cls-1" d="M33.75,13.48v-4.99h1.17c1.11,0,1.76.11,1.76,1.16,0,.62-.26,1.03-.89,1.13h0c.56.03.89.24.89.95v1.04c0,.2.04.49.17.69h-1.17c-.14-.2-.17-.5-.17-.69v-1.06c0-.35-.21-.53-.42-.53h-.19v2.28h-1.16ZM34.91,10.49c.53,0,.61-.18.61-.64s-.08-.64-.61-.64v1.28Z"/>
        <path class="cls-1" d="M36.99,13.48v-4.99h1.16v4.99h-1.16Z"/>
        <path class="cls-1" d="M38.42,13.48v-4.99h1.17c1.11,0,1.76.11,1.76,1.16,0,.62-.26,1.03-.89,1.13h0c.56.03.89.24.89.95v1.04c0,.2.04.49.17.69h-1.17c-.14-.2-.17-.5-.17-.69v-1.06c0-.35-.21-.53-.42-.53h-.19v2.28h-1.16ZM39.59,10.49c.53,0,.61-.18.61-.64s-.08-.64-.61-.64v1.28Z"/>
        <path class="cls-1" d="M43.3,13.48v-4.99h1.16v4.23h1.26v.76h-2.42Z"/>
        <path class="cls-1" d="M45.89,13.48v-4.99h2.41v.76h-1.25v1.09h1.2v.76h-1.2v1.62h1.25v.76h-2.41Z"/>
        <path class="cls-1" d="M50.27,10.28v-.7c0-.25-.08-.38-.31-.38-.25,0-.31.14-.31.38,0,.84,1.78,1.09,1.78,2.63,0,.94-.5,1.37-1.48,1.37-.74,0-1.46-.25-1.46-1.11v-.92h1.16v.86c0,.29.09.38.31.38.19,0,.31-.08.31-.38,0-1.13-1.78-1.15-1.78-2.76,0-.9.59-1.25,1.49-1.25.78,0,1.45.27,1.45,1.1v.78h-1.16Z"/>
        <path class="cls-1" d="M53.36,13.48v-4.99h1.42c.92,0,1.52.21,1.52,1.07v.91c0,.75-.67,1.08-1.35,1.08h-.43v1.93h-1.16ZM54.52,10.84h.18c.41,0,.43-.22.43-.81s-.03-.82-.43-.82h-.18v1.63Z"/>
        <path class="cls-1" d="M59.55,12.13c0,1.14-.7,1.46-1.47,1.46s-1.47-.31-1.47-1.46v-2.27c0-1.14.7-1.46,1.47-1.46s1.47.32,1.47,1.46v2.27ZM57.77,12.39c0,.2.06.39.31.39s.31-.19.31-.39v-2.8c0-.2-.06-.39-.31-.39s-.31.19-.31.39v2.8Z"/>
        <path class="cls-1" d="M59.84,13.48v-4.99h1.16v4.99h-1.16Z"/>
        <path class="cls-1" d="M63.06,10.28v-.7c0-.25-.08-.38-.31-.38-.25,0-.31.14-.31.38,0,.84,1.78,1.09,1.78,2.63,0,.94-.5,1.37-1.48,1.37-.74,0-1.46-.25-1.46-1.11v-.92h1.16v.86c0,.29.09.38.31.38.19,0,.31-.08.31-.38,0-1.13-1.78-1.15-1.78-2.76,0-.9.59-1.25,1.49-1.25.78,0,1.45.27,1.45,1.1v.78h-1.16Z"/>
        <path class="cls-1" d="M66.31,10.28v-.7c0-.25-.08-.38-.31-.38-.25,0-.31.14-.31.38,0,.84,1.78,1.09,1.78,2.63,0,.94-.5,1.37-1.48,1.37-.74,0-1.46-.25-1.46-1.11v-.92h1.16v.86c0,.29.09.38.31.38.19,0,.31-.08.31-.38,0-1.13-1.78-1.15-1.78-2.76,0-.9.59-1.25,1.49-1.25.78,0,1.45.27,1.45,1.1v.78h-1.16Z"/>
        <path class="cls-1" d="M70.72,12.13c0,1.14-.7,1.46-1.47,1.46s-1.47-.31-1.47-1.46v-2.27c0-1.14.7-1.46,1.47-1.46s1.47.32,1.47,1.46v2.27ZM68.94,12.39c0,.2.06.39.31.39s.31-.19.31-.39v-2.8c0-.2-.06-.39-.31-.39s-.31.19-.31.39v2.8Z"/>
        <path class="cls-1" d="M70.99,8.5h1.61l.74,3.63h.01v-3.63h.91v4.99h-1.49l-.86-4.17h-.01v4.17h-.91v-4.99Z"/>
        <path class="cls-1" d="M76.31,10.28v-.7c0-.25-.08-.38-.31-.38-.25,0-.31.14-.31.38,0,.84,1.78,1.09,1.78,2.63,0,.94-.5,1.37-1.48,1.37-.74,0-1.46-.25-1.46-1.11v-.92h1.16v.86c0,.29.09.38.31.38.19,0,.31-.08.31-.38,0-1.13-1.78-1.15-1.78-2.76,0-.9.59-1.25,1.49-1.25.78,0,1.45.27,1.45,1.1v.78h-1.16Z"/>
        <path class="cls-1" d="M77.99,12.02v-3.52h1.08v3.52h-1.08ZM77.99,13.48v-1.18h1.08v1.18h-1.08Z"/>
      </g>
      <g id="guy_fishing" data-name="guy fishing">
        <g>
          <g>
            <circle class="cls-1" cx="58.74" cy="40.73" r="4.4"/>
            <path class="cls-1" d="M53.72,60.97l4.72-9.63c1.06-2.17.16-4.82-2.01-5.88h0c-1.23-.6-2.61-.57-3.78-.04l-4.85-6.75c-.75-1.05-2.23-1.29-3.27-.54-1.05.75-1.29,2.23-.54,3.27l2.5,3.48-4.62-2.52c-1.13-.62-2.56-.2-3.18.94s-.2,2.56.94,3.18l9,4.91-2.8,5.71c-.52,1.07-.57,2.25-.22,3.3l-3.23,2.32c-.63.45-.96,1.16-.97,1.88-.06.19-.1.38-.11.58l-.35,9.29c-.05,1.29.97,2.38,2.26,2.43,1.29.05,2.38-.97,2.43-2.26l.33-8.74,2.26-1.63-.03,1.8c0,.45.12.86.33,1.22.02.19.05.38.11.56l2.36,6.89c.42,1.22,1.76,1.88,2.98,1.46h0c1.22-.42,1.88-1.76,1.46-2.98l-2.36-6.89c-.05-.14-.11-.27-.18-.4l.07-3.89c.3-.32.56-.68.76-1.09Z"/>
          </g>
          <g>
            <g>
              <line class="cls-3" x1="41.54" y1="43.67" x2="68.93" y2="23.98"/>
              <path class="cls-2" d="M68.59,24.12c7.91-.95,16.19-2.48,16.33-4.92.03-.53-.3-1.06-.7-1.34-2.65-1.83-8.99,6.91-18.66,12.03-11.67,6.17-17.28,1.13-27.34,6.95-6.78,3.93-10.83,10.02-13.32,15.16"/>
            </g>
            <path class="cls-1" d="M27.03,49.82l-2.94-1.06c-.99-.36-2.09.16-2.45,1.15l-2.78,7.7c-.36.99.16,2.09,1.15,2.45l2.94,1.06c.99.36,2.09-.16,2.45-1.15l2.78-7.7c.36-.99-.16-2.09-1.15-2.45ZM21.15,56.52c-.33-.14-.56-.43-.61-.79-.05-.36.1-.7.38-.92l.49-.38-.3-.4,1.38.03-.36,1.34-.29-.39-.48.37c-.08.06-.12.16-.11.25.01.1.08.18.17.22l1.49.62-.28.67-1.49-.62ZM25.26,57.69c-.29.22-.65.27-.99.13l-.56-.23-.16.39-.72-1.13,1.33-.34-.17.41.56.23c.09.04.19.02.27-.04.08-.06.12-.16.11-.25l-.21-1.63.71-.11.22,1.65c.05.36-.1.7-.38.92ZM25.06,55.11l-.99-.95.49-.07-.07-.57c-.01-.1-.08-.18-.17-.22s-.19-.02-.27.04l-1.28.98-.43-.58,1.27-.97c.29-.22.65-.27.99-.13.33.14.56.43.61.79l.07.56.49-.07-.7,1.2Z"/>
          </g>
        </g>
        <path class="cls-1" d="M33.04,71.88c-1.31,0-3.12.71-5.22,1.53-2.34.92-5.18,2.03-7.76,2.26l-.06-11c0-.53-.73-.69-.94-.2-1.1,2.45-2.83,6.15-3.17,6.07-.51-.11-.23-9.16-.88-9.31-.55-.13-9.85,7.49-12.54,9.71-.08.07-.13.15-.16.24-.46-.07-.91-.12-1.35-.15-.49-.03-.92.35-.95.84-.03.5.35.92.84.95,2.64.16,5.76,1.26,8.78,2.33,3.13,1.11,6.38,2.25,9.13,2.35.12,0,.24,0,.36,0,3.15,0,6.58-1.34,9.35-2.42,1.85-.72,3.59-1.4,4.56-1.4.5,0,.9-.4.9-.9s-.4-.9-.9-.9ZM11.06,68.56c.18-.8.94-1.32,1.74-1.22-.57.09-1,.58-1,1.18,0,.66.54,1.2,1.2,1.2s1.14-.49,1.19-1.1c.04.21.04.43,0,.65-.19.86-1.05,1.4-1.91,1.2-.86-.19-1.4-1.05-1.2-1.91Z"/>
      </g>
    </g>
  </g>
</svg>