{
	"asset":{
		"generator":"Khronos glTF Blender I/O v4.3.47",
		"version":"2.0"
	},
	"extensionsUsed":[
		"KHR_materials_specular"
	],
	"scene":0,
	"scenes":[
		{
			"name":"Scene",
			"nodes":[
				0
			]
		}
	],
	"nodes":[
		{
			"mesh":0,
			"name":"Fish",
			"translation":[
				0,
				0.9953857660293579,
				0
			]
		}
	],
	"materials":[
		{
			"doubleSided":true,
			"name":"Material.001",
			"pbrMetallicRoughness":{
				"baseColorFactor":[
					0.800000011920929,
					0.800000011920929,
					0.800000011920929,
					1
				],
				"roughnessFactor":0.10454544425010681
			}
		},
		{
			"doubleSided":true,
			"extensions":{
				"KHR_materials_specular":{
					"specularColorFactor":[
						1.600000023841858,
						1.600000023841858,
						1.600000023841858
					]
				}
			},
			"name":"Fish",
			"pbrMetallicRoughness":{
				"metallicFactor":0
			}
		}
	],
	"meshes":[
		{
			"name":"Cylinder.005",
			"primitives":[
				{
					"attributes":{
						"POSITION":0,
						"NORMAL":1,
						"TEXCOORD_0":2
					},
					"indices":3,
					"material":0
				},
				{
					"attributes":{
						"POSITION":4,
						"NORMAL":5,
						"TEXCOORD_0":6
					},
					"indices":7,
					"material":1
				}
			]
		}
	],
	"accessors":[
		{
			"bufferView":0,
			"componentType":5126,
			"count":3394,
			"max":[
				0.6754966974258423,
				1.5982333421707153,
				0.6754966974258423
			],
			"min":[
				-0.6754966974258423,
				-0.9923315644264221,
				-0.6754966974258423
			],
			"type":"VEC3"
		},
		{
			"bufferView":1,
			"componentType":5126,
			"count":3394,
			"type":"VEC3"
		},
		{
			"bufferView":2,
			"componentType":5126,
			"count":3394,
			"type":"VEC2"
		},
		{
			"bufferView":3,
			"componentType":5123,
			"count":10887,
			"type":"SCALAR"
		},
		{
			"bufferView":4,
			"componentType":5126,
			"count":1181,
			"max":[
				0.6990675330162048,
				1.5525699853897095,
				0.6990675330162048
			],
			"min":[
				-0.6990675330162048,
				-0.8333378434181213,
				-0.6990675330162048
			],
			"type":"VEC3"
		},
		{
			"bufferView":5,
			"componentType":5126,
			"count":1181,
			"type":"VEC3"
		},
		{
			"bufferView":6,
			"componentType":5126,
			"count":1181,
			"type":"VEC2"
		},
		{
			"bufferView":7,
			"componentType":5123,
			"count":3012,
			"type":"SCALAR"
		}
	],
	"bufferViews":[
		{
			"buffer":0,
			"byteLength":40728,
			"byteOffset":0,
			"target":34962
		},
		{
			"buffer":0,
			"byteLength":40728,
			"byteOffset":40728,
			"target":34962
		},
		{
			"buffer":0,
			"byteLength":27152,
			"byteOffset":81456,
			"target":34962
		},
		{
			"buffer":0,
			"byteLength":21774,
			"byteOffset":108608,
			"target":34963
		},
		{
			"buffer":0,
			"byteLength":14172,
			"byteOffset":130384,
			"target":34962
		},
		{
			"buffer":0,
			"byteLength":14172,
			"byteOffset":144556,
			"target":34962
		},
		{
			"buffer":0,
			"byteLength":9448,
			"byteOffset":158728,
			"target":34962
		},
		{
			"buffer":0,
			"byteLength":6024,
			"byteOffset":168176,
			"target":34963
		}
	],
	"buffers":[
		{
			"byteLength":174200,
			"uri":"CansWeb.bin"
		}
	]
}
