<?xml version="1.0" encoding="UTF-8"?>
<svg id="Layer_2" data-name="Layer 2" xmlns="http://www.w3.org/2000/svg" viewBox="0 0 600 600">
  <defs>
    <style>
      .cls-1 {
        fill: currentColor;
      }
    </style>
  </defs>
  <g id="Layer_1-2" data-name="Layer 1">
    <g>
      <path class="cls-1" d="M300,0C134.31,0,0,134.31,0,300s134.31,300,300,300,300-134.31,300-300S465.69,0,300,0ZM412.33,449.66c-41.66,0-79.35-16.99-106.53-44.41-.05.03-.1.05-.16.08-7.81-8.18-16.54-15.47-26.03-21.72-2.84,6.75-9.51,11.48-17.29,11.48-10.36,0-18.75-8.39-18.75-18.75,0-3.37.9-6.53,2.46-9.27-15.32-5.28-31.76-8.15-48.87-8.15-20.94,0-40.88,4.3-58.98,12.05-.16-.2-.32-.41-.48-.61-7.83,2.77-16.25,4.29-25.03,4.29-41.42,0-75-33.58-75-75s33.58-75,75-75c11.88,0,23.11,2.77,33.1,7.69,16.03,5.85,33.34,9.04,51.39,9.04,10.36,0,20.48-1.06,30.25-3.06-1.66-4.24-2.58-8.85-2.58-13.67,0-20.71,16.79-37.5,37.5-37.5,13.7,0,25.67,7.35,32.22,18.31,1.36-1.16,2.69-2.35,4.01-3.56,27.51-31.99,68.27-52.25,113.77-52.25,82.84,0,150,67.16,150,150s-67.16,150-150,150Z"/>
      <circle class="cls-1" cx="466.58" cy="247.51" r="37.5"/>
    </g>
  </g>
</svg>